<?xml version="1.0" encoding="utf-8"?>
<!-- Generator: Adobe Illustrator 24.1.1, SVG Export Plug-In . SVG Version: 6.00 Build 0)  -->
<svg version="1.1" id="Layer_1" xmlns="http://www.w3.org/2000/svg" xmlns:xlink="http://www.w3.org/1999/xlink" x="0px" y="0px"
	 viewBox="0 0 24 24" style="enable-background:new 0 0 24 24;" xml:space="preserve">
<style type="text/css">
	.st0{fill:#FFFFFF;}
</style>
<path class="st0" d="M19.2,5.2l-0.4-0.4c-0.2-0.2-0.5-0.2-0.7,0L12,10.9L5.9,4.8c-0.2-0.2-0.5-0.2-0.7,0L4.8,5.2
	c-0.2,0.2-0.2,0.5,0,0.7c0,0,0,0,0,0L11,12l-6.2,6.1c-0.2,0.2-0.2,0.5,0,0.7c0,0,0,0,0,0l0.3,0.4c0.2,0.2,0.5,0.2,0.7,0l6.1-6.1
	l6.1,6.1c0.2,0.2,0.5,0.2,0.7,0l0.4-0.4c0.2-0.2,0.2-0.5,0-0.7c0,0,0,0,0,0L13.1,12l6.1-6.1C19.4,5.7,19.4,5.4,19.2,5.2
	C19.2,5.2,19.2,5.2,19.2,5.2z"/>
</svg>
