<?xml version="1.0" encoding="utf-8"?>
<!-- Generator: Adobe Illustrator 24.1.1, SVG Export Plug-In . SVG Version: 6.00 Build 0)  -->
<svg version="1.1"
	 id="svg2" xmlns:cc="http://creativecommons.org/ns#" xmlns:dc="http://purl.org/dc/elements/1.1/" xmlns:rdf="http://www.w3.org/1999/02/22-rdf-syntax-ns#" xmlns:svg="http://www.w3.org/2000/svg"
	 xmlns="http://www.w3.org/2000/svg" xmlns:xlink="http://www.w3.org/1999/xlink" x="0px" y="0px" viewBox="0 0 4316.9 4058.2"
	 style="enable-background:new 0 0 4316.9 4058.2;" xml:space="preserve">
<style type="text/css">
	.st0{fill-rule:evenodd;clip-rule:evenodd;}
	.st1{fill:#030104;}
</style>
<path class="st0" d="M3242,596.8H1074.9c-192.6,0-348.7,156.1-348.7,348.7v2167.1c0,192.6,156.1,348.7,348.7,348.7H3242
	c192.6,0,348.7-156.1,348.7-348.7V945.5C3590.8,752.9,3434.6,596.8,3242,596.8z M2985.3,1316.8l-826.8,606.3l-826.8-606.4
	L2985.3,1316.8z M3098.8,2656c0,47.2-38.3,85.5-85.5,85.5l-1709.6,0c-47.2,0-85.5-38.3-85.5-85.5l0-1210.4l171,125.4l718.8,527.1
	c15.1,11,32.8,16.5,50.6,16.5c17.7,0,35.5-5.5,50.5-16.5l718.8-527.1l171-125.4V2656z"/>
</svg>
