<?xml version="1.0" encoding="utf-8"?>
<!-- Generator: Adobe Illustrator 24.1.1, SVG Export Plug-In . SVG Version: 6.00 Build 0)  -->
<svg version="1.1"
	 id="svg2" xmlns:cc="http://creativecommons.org/ns#" xmlns:dc="http://purl.org/dc/elements/1.1/" xmlns:rdf="http://www.w3.org/1999/02/22-rdf-syntax-ns#" xmlns:svg="http://www.w3.org/2000/svg"
	 xmlns="http://www.w3.org/2000/svg" xmlns:xlink="http://www.w3.org/1999/xlink" x="0px" y="0px" viewBox="0 0 4316.9 4058.2"
	 style="enable-background:new 0 0 4316.9 4058.2;" xml:space="preserve">
<style type="text/css">
	.st0{fill-rule:evenodd;clip-rule:evenodd;}
	.st1{fill:#030104;}
</style>
<g>
	<path d="M3420.5,597H896.7c-132.1,0-238.9,106.7-238.9,238.6v2387.1c0,131.5,106.8,238.5,238.9,238.5h2523.8
		c131.5,0,238.6-106.9,238.6-238.5V835.6C3659,703.7,3551.9,597,3420.5,597z M2675.2,1447.4c-62.1-36.3-111.3-65-173.1-65
		c-60.5,0-112.3,15.1-138.7,40.6c-26.5,25.3-39.6,74.2-39.6,146.5v107h323.7l-70.1,297.5h-253.6v988.6h-406.6V1974h-189.8v-297.5
		h190v-113.6c0-119.6,14.3-191.2,42.6-250.2c28.2-58.8,82.8-124.4,158.8-161.5c75.9-37,188.2-55.6,304.3-55.6
		c119.1,0,212.1,39.7,326.2,71.7L2675.2,1447.4z"/>
</g>
</svg>
