<?xml version="1.0" encoding="UTF-8" standalone="no"?>
<svg
   xmlns:dc="http://purl.org/dc/elements/1.1/"
   xmlns:cc="http://creativecommons.org/ns#"
   xmlns:rdf="http://www.w3.org/1999/02/22-rdf-syntax-ns#"
   xmlns:svg="http://www.w3.org/2000/svg"
   xmlns="http://www.w3.org/2000/svg"
   viewBox="0 0 4316.9067 4058.2134"
   height="4058.2134"
   width="4316.9067"
   xml:space="preserve"
   id="svg2"
   version="1.1"><metadata
     id="metadata8"><rdf:RDF><cc:Work
         rdf:about=""><dc:format>image/svg+xml</dc:format><dc:type
           rdf:resource="http://purl.org/dc/dcmitype/StillImage" /></cc:Work></rdf:RDF></metadata><defs
     id="defs6" /><g
     transform="matrix(1.3333333,0,0,-1.3333333,0,4058.2133)"
     id="g10"><g
       transform="scale(0.220723)"
       id="g12"><path
         id="path14"
         style="fill:#ffffff;fill-opacity:1;fill-rule:nonzero;stroke:none"
         d="m 14343.3,6894.77 c 0,-3707.78 -3010.6,-6713.547 -6724.37,-6713.547 -3713.77,0 -6724.375,3005.767 -6724.375,6713.547 0,3707.83 3010.605,6713.53 6724.375,6713.53 3713.77,0 6724.37,-3005.7 6724.37,-6713.53" /><path
         id="path16"
         style="fill:#222322;fill-opacity:1;fill-rule:nonzero;stroke:none"
         d="m 14343.3,6894.77 h -181.2 C 14162.1,5992.36 13979,5133.64 13648,4352.25 13151.5,3180.24 12321.7,2182.42 11277.3,1478.01 10755.1,1125.8 10179.4,846.945 9564.81,656.117 8950.29,465.289 8296.93,362.445 7618.93,362.445 c -903.94,0 -1764.2,182.809 -2546.91,513.313 C 3897.99,1371.5 2898.57,2200.05 2193.06,3242.71 1840.3,3764.05 1561.01,4338.8 1369.89,4952.28 c -191.12,613.49 -294.11,1265.66 -294.11,1942.49 0.02,902.39 183.07,1761.12 514.08,2542.51 496.48,1172.02 1326.35,2169.82 2370.75,2874.22 522.19,352.2 1097.91,631.1 1712.44,821.9 614.57,190.8 1267.88,293.7 1945.88,293.7 903.99,0 1764.21,-182.8 2546.97,-513.3 1174,-495.8 2173.4,-1324.3 2878.9,-2367 352.8,-521.3 632.1,-1096.06 823.2,-1709.55 191.1,-613.49 294.1,-1265.66 294.1,-1942.48 h 362.5 c 0,951.5 -193.3,1858.89 -542.8,2683.9 -524.4,1237.63 -1399.8,2289.93 -2501.9,3033.33 -551,371.7 -1158.8,666.1 -1807.58,867.6 -648.82,201.4 -1338.69,309.9 -2053.39,309.9 -952.91,0.1 -1861.66,-192.9 -2687.94,-541.8 C 3691.54,12724.2 2637.48,11850.3 1892.88,10749.9 1520.59,10199.8 1225.68,9592.93 1023.85,8945.07 822.008,8297.25 713.32,7608.38 713.328,6894.77 713.301,5943.25 906.582,5035.87 1256.12,4210.85 1780.46,2973.28 2655.89,1920.92 3757.93,1177.54 4308.97,805.852 4916.71,511.457 5565.59,309.98 6214.36,108.508 6904.28,0 7618.93,0 c 952.92,-0.046875 1861.71,192.91 2687.97,541.855 1239.5,523.465 2293.5,1397.415 3038.1,2497.755 372.3,550.14 667.2,1156.97 869,1804.84 201.9,647.83 310.6,1336.7 310.6,2050.32 h -181.3" /><path
         id="path18"
         style="fill:#2b2d2d;fill-opacity:1;fill-rule:nonzero;stroke:none"
         d="M 259.758,10330.8 H 5642.24 c 527.95,0 1048.83,-123.6 1519.6,-362.52 C 8033.75,9525.81 9348.3,8643.61 9991.41,7135.65 H 4332.43 c -671.32,0 -1327.7,199.08 -1885.28,572.94 C 1691.81,8215.02 723.18,9070.98 259.758,10330.8" /><path
         id="path20"
         style="fill:#222322;fill-opacity:1;fill-rule:nonzero;stroke:none"
         d="m 259.758,10330.8 v -181.2 H 5642.24 c 499.68,0 992.42,-117 1437.6,-342.92 425.42,-215.82 958.98,-539.4 1461.61,-990.09 251.4,-225.35 495.1,-482.37 714.43,-773.46 219.32,-291.09 414.32,-616.25 568.85,-978.56 l 166.68,71.08 v 181.23 H 4332.43 c -635.48,0 -1256.72,188.47 -1784.36,542.22 -368.25,246.82 -787.92,578.82 -1169.88,999.85 -191.01,210.49 -372.65,443.23 -534.198,698.71 -161.566,255.5 -303.07,533.74 -414.152,835.64 l -170.082,-62.5 v -181.2 181.2 L 89.6758,10268.2 C 210.301,9940.3 363.66,9639.08 537.656,9363.94 798.691,8951.19 1106,8597.04 1420.26,8297.48 c 314.29,-299.61 635.63,-544.76 925.97,-739.44 587.53,-393.89 1279.04,-603.61 1986.2,-603.61 h 5933.27 l -107.6,252.31 c -167.01,391.67 -377.49,742.29 -612.77,1054.49 -352.97,468.42 -761.41,850.52 -1164.72,1158.07 -403.4,307.52 -801.86,540.62 -1136.72,710.6 -496.46,251.9 -1045.43,382.1 -1601.65,382.1 H 0 l 89.6758,-243.8 170.0822,62.6" /><path
         id="path22"
         style="fill:#2b2d2d;fill-opacity:1;fill-rule:nonzero;stroke:none"
         d="M 4662.55,6607.39 H 10045 c 528,0 1048.8,-123.55 1519.7,-362.49 871.9,-442.5 2186.4,-1324.65 2829.5,-2832.65 H 8735.22 c -671.29,0 -1327.68,199.12 -1885.26,572.93 -755.34,506.43 -1723.98,1362.39 -2187.41,2622.21" /><path
         id="path24"
         style="fill:#222322;fill-opacity:1;fill-rule:nonzero;stroke:none"
         d="M 4662.55,6607.39 V 6426.17 H 10045 c 499.7,0 992.5,-116.94 1437.7,-342.88 425.4,-215.83 958.9,-539.41 1461.6,-990.11 251.3,-225.3 495,-482.32 714.3,-773.41 219.4,-291.14 414.4,-616.25 568.9,-978.61 l 166.7,71.09 v 181.22 H 8735.22 c -635.46,0 -1256.69,188.47 -1784.37,542.26 -368.24,246.83 -787.91,578.79 -1169.84,999.81 -191.01,210.54 -372.68,443.23 -534.2,698.75 -161.56,255.48 -303.09,533.7 -414.18,835.67 l -170.08,-62.57 v -181.22 181.22 l -170.07,-62.57 c 120.64,-327.92 274,-629.11 447.98,-904.25 261.05,-412.78 568.36,-766.89 882.6,-1066.5 314.28,-299.56 635.64,-544.71 925.96,-739.39 587.52,-393.93 1279.07,-603.66 1986.2,-603.66 h 5933.38 l -107.7,252.36 c -167,391.62 -377.5,742.24 -612.8,1054.49 -352.9,468.42 -761.4,850.48 -1164.7,1158.06 -403.4,307.49 -801.8,540.59 -1136.7,710.57 -496.5,251.95 -1045.4,382.11 -1601.7,382.11 H 4402.81 l 89.67,-243.79 170.07,62.57" /><path
         id="path26"
         style="fill:#dfdddc;fill-opacity:1;fill-rule:nonzero;stroke:none"
         d="m 4536.6,5966.77 -432.65,618.42 -727.15,131.38 h 817.76 l 342.04,-749.8" /><path
         id="path28"
         style="fill:#222322;fill-opacity:1;fill-rule:nonzero;stroke:none"
         d="M 9701.46,7307.82 H 3866.09 c 0,0 -1014.84,72.48 -2247.16,1304.8 0,0 750.61,284.25 2337.77,308.08 788.31,11.83 2009.3,-237.36 2727.39,-407.75 801.91,-190.29 2613.78,-953.5 3017.37,-1205.13" /><path
         id="path30"
         style="fill:#222322;fill-opacity:1;fill-rule:nonzero;stroke:none"
         d="m 4928.54,6420.96 h 5835.36 c 0,0 1014.9,-72.49 2247.2,-1304.81 0,0 -750.6,-284.29 -2337.8,-308.08 -788.31,-11.82 -2009.3,237.36 -2727.4,407.75 -801.91,190.29 -2613.77,953.51 -3017.36,1205.14" /><path
         id="path32"
         style="fill:#ffffff;fill-opacity:1;fill-rule:nonzero;stroke:none"
         d="m 5976.46,10080.9 c 0,0 1638.67,-508.47 3158.36,-2322.97 0,0 -980.92,2017.41 -3158.36,2322.97" /><path
         id="path34"
         style="fill:#ffffff;fill-opacity:1;fill-rule:nonzero;stroke:none"
         d="m 8594.5,3630.17 c 0,0 -1591.5,493.79 -3067.52,2256.09 0,0 952.74,-1959.38 3067.52,-2256.09" /><path
         id="path36"
         style="fill:#dedbd9;fill-opacity:1;fill-rule:nonzero;stroke:none"
         d="m 13779,4906.25 -475.7,511.23 367.1,-60.44 256.6,355.83 -148,-806.62" /><path
         id="path38"
         style="fill:#dedbd9;fill-opacity:1;fill-rule:nonzero;stroke:none"
         d="m 7551.65,510.504 c -631.29,0 -1312.1,101.168 -2024.62,356.922 C 3391.9,1633.73 2074.63,3150.65 1486.98,5881.73 c 0,0 1786.41,-4899.183 6337.91,-4899.183 1096.58,0 2352.81,283.973 3784.21,989.433 0.3,0.13 0.5,0.22 0.7,0.22 11.6,0 -403.2,-365.43 -1120.8,-730.87 C 9771.5,875.941 8751.03,510.504 7551.65,510.504" /><path
         id="path40"
         style="fill:#dedbd9;fill-opacity:1;fill-rule:nonzero;stroke:none"
         d="m 13746.7,7917.86 c 0,0 -1786.5,4899.14 -6337.94,4899.14 -1096.58,0 -2352.82,-283.9 -3784.24,-989.4 -0.31,-0.1 -0.55,-0.2 -0.71,-0.2 -11.63,0 403.19,365.4 1120.79,730.9 717.55,365.4 1737.97,730.8 2937.35,730.8 631.34,0 1312.1,-101.2 2024.67,-356.9 C 11841.7,12165.9 13159,10649 13746.7,7917.86" /></g></g></svg>