<?xml version="1.0" encoding="utf-8"?>
<!-- Generator: Adobe Illustrator 24.1.1, SVG Export Plug-In . SVG Version: 6.00 Build 0)  -->
<svg version="1.1" id="Layer_1" xmlns="http://www.w3.org/2000/svg" xmlns:xlink="http://www.w3.org/1999/xlink" x="0px" y="0px"
	 viewBox="0 0 24 24" style="enable-background:new 0 0 24 24;" xml:space="preserve">
<style type="text/css">
	.st0{fill:#FFFFFF;}
	.st1{fill:#222322;}
	.st2{fill:#2B2D2D;}
	.st3{fill:#DFDDDC;}
	.st4{fill:#DEDBD9;}
</style>
<path class="st0" d="M4.5,11.3h15c0.3,0,0.5,0.2,0.5,0.5v0.5c0,0.3-0.2,0.5-0.5,0.5h-15c-0.3,0-0.5-0.2-0.5-0.5v-0.5
	C4,11.5,4.2,11.3,4.5,11.3z"/>
<path class="st0" d="M4.5,6h15C19.8,6,20,6.2,20,6.5V7c0,0.3-0.2,0.5-0.5,0.5h-15C4.2,7.5,4,7.3,4,7V6.5C4,6.2,4.2,6,4.5,6z"/>
<path class="st0" d="M4.5,16.5h15c0.3,0,0.5,0.2,0.5,0.5v0.5c0,0.3-0.2,0.5-0.5,0.5h-15C4.2,18,4,17.8,4,17.5V17
	C4,16.7,4.2,16.5,4.5,16.5z"/>
<g id="g10" transform="matrix(1.3333333,0,0,-1.3333333,0,4058.2133)">
	<g id="g12" transform="scale(0.220723)">
		<path id="path14" class="st0" d="M73.2,13748.7c0-17.1-13.9-31-31.1-31s-31.1,13.9-31.1,31s13.9,31,31.1,31
			S73.2,13765.9,73.2,13748.7"/>
		<path id="path16" class="st1" d="M73.2,13748.7h-0.8c0-4.2-0.8-8.1-2.4-11.7c-2.3-5.4-6.1-10-11-13.3c-2.4-1.6-5.1-2.9-7.9-3.8
			c-2.8-0.9-5.9-1.4-9-1.4c-4.2,0-8.2,0.8-11.8,2.4c-5.4,2.3-10,6.1-13.3,10.9c-1.6,2.4-2.9,5.1-3.8,7.9c-0.9,2.8-1.4,5.8-1.4,9
			c0,4.2,0.8,8.1,2.4,11.7c2.3,5.4,6.1,10,11,13.3c2.4,1.6,5.1,2.9,7.9,3.8c2.8,0.9,5.9,1.4,9,1.4c4.2,0,8.2-0.8,11.8-2.4
			c5.4-2.3,10-6.1,13.3-10.9c1.6-2.4,2.9-5.1,3.8-7.9s1.4-5.8,1.4-9H74c0,4.4-0.9,8.6-2.5,12.4c-2.4,5.7-6.5,10.6-11.6,14
			c-2.5,1.7-5.4,3.1-8.4,4c-3,0.9-6.2,1.4-9.5,1.4c-4.4,0-8.6-0.9-12.4-2.5c-5.7-2.4-10.6-6.5-14-11.5c-1.7-2.5-3.1-5.3-4-8.3
			c-0.9-3-1.4-6.2-1.4-9.5c0-4.4,0.9-8.6,2.5-12.4c2.4-5.7,6.5-10.6,11.6-14c2.5-1.7,5.4-3.1,8.4-4c3-0.9,6.2-1.4,9.5-1.4
			c4.4,0,8.6,0.9,12.4,2.5c5.7,2.4,10.6,6.5,14,11.5c1.7,2.5,3.1,5.3,4,8.3c0.9,3,1.4,6.2,1.4,9.5H73.2"/>
		<path id="path18" class="st2" d="M8.1,13764.6H33c2.4,0,4.8-0.6,7-1.7c4-2,10.1-6.1,13.1-13.1H26.9c-3.1,0-6.1,0.9-8.7,2.6
			C14.7,13754.8,10.2,13758.8,8.1,13764.6"/>
		<path id="path20" class="st1" d="M8.1,13764.6v-0.8H33c2.3,0,4.6-0.5,6.6-1.6c2-1,4.4-2.5,6.8-4.6c1.2-1,2.3-2.2,3.3-3.6
			c1-1.3,1.9-2.8,2.6-4.5l0.8,0.3v0.8H26.9c-2.9,0-5.8,0.9-8.2,2.5c-1.7,1.1-3.6,2.7-5.4,4.6c-0.9,1-1.7,2-2.5,3.2
			c-0.7,1.2-1.4,2.5-1.9,3.9L8.1,13764.6l0-0.8L8.1,13764.6l-0.8-0.3c0.6-1.5,1.3-2.9,2.1-4.2c1.2-1.9,2.6-3.5,4.1-4.9
			c1.5-1.4,2.9-2.5,4.3-3.4c2.7-1.8,5.9-2.8,9.2-2.8h27.4l-0.5,1.2c-0.8,1.8-1.7,3.4-2.8,4.9c-1.6,2.2-3.5,3.9-5.4,5.4
			c-1.9,1.4-3.7,2.5-5.3,3.3c-2.3,1.2-4.8,1.8-7.4,1.8H6.9l0.4-1.1L8.1,13764.6"/>
		<path id="path22" class="st2" d="M28.4,13747.4h24.9c2.4,0,4.8-0.6,7-1.7c4-2,10.1-6.1,13.1-13.1H47.2c-3.1,0-6.1,0.9-8.7,2.6
			C35,13737.6,30.6,13741.6,28.4,13747.4"/>
		<path id="path24" class="st1" d="M28.4,13747.4v-0.8h24.9c2.3,0,4.6-0.5,6.6-1.6c2-1,4.4-2.5,6.8-4.6c1.2-1,2.3-2.2,3.3-3.6
			c1-1.3,1.9-2.8,2.6-4.5l0.8,0.3v0.8H47.2c-2.9,0-5.8,0.9-8.2,2.5c-1.7,1.1-3.6,2.7-5.4,4.6c-0.9,1-1.7,2-2.5,3.2
			c-0.7,1.2-1.4,2.5-1.9,3.9L28.4,13747.4l0-0.8L28.4,13747.4l-0.8-0.3c0.6-1.5,1.3-2.9,2.1-4.2c1.2-1.9,2.6-3.5,4.1-4.9
			c1.5-1.4,2.9-2.5,4.3-3.4c2.7-1.8,5.9-2.8,9.2-2.8h27.4l-0.5,1.2c-0.8,1.8-1.7,3.4-2.8,4.9c-1.6,2.2-3.5,3.9-5.4,5.4
			c-1.9,1.4-3.7,2.5-5.3,3.3c-2.3,1.2-4.8,1.8-7.4,1.8H27.2l0.4-1.1L28.4,13747.4"/>
		<path id="path26" class="st3" d="M27.8,13744.4l-2,2.9l-3.4,0.6h3.8L27.8,13744.4"/>
		<path id="path28" class="st1" d="M51.7,13750.6h-27c0,0-4.7,0.3-10.4,6c0,0,3.5,1.3,10.8,1.4c3.6,0.1,9.3-1.1,12.6-1.9
			C41.5,13755.3,49.8,13751.8,51.7,13750.6"/>
		<path id="path30" class="st1" d="M29.7,13746.5h27c0,0,4.7-0.3,10.4-6c0,0-3.5-1.3-10.8-1.4c-3.6-0.1-9.3,1.1-12.6,1.9
			C39.9,13741.9,31.5,13745.4,29.7,13746.5"/>
		<path id="path32" class="st0" d="M34.5,13763.5c0,0,7.6-2.3,14.6-10.7C49.1,13752.7,44.6,13762,34.5,13763.5"/>
		<path id="path34" class="st0" d="M46.6,13733.6c0,0-7.4,2.3-14.2,10.4C32.4,13744.1,36.8,13735,46.6,13733.6"/>
		<path id="path36" class="st4" d="M70.6,13739.5l-2.2,2.4l1.7-0.3l1.2,1.6L70.6,13739.5"/>
		<path id="path38" class="st4" d="M41.8,13719.2c-2.9,0-6.1,0.5-9.4,1.6c-9.9,3.5-16,10.5-18.7,23.2c0,0,8.3-22.6,29.3-22.6
			c5.1,0,10.9,1.3,17.5,4.6c0,0,0,0,0,0c0.1,0-1.9-1.7-5.2-3.4C52,13720.9,47.3,13719.2,41.8,13719.2"/>
		<path id="path40" class="st4" d="M70.4,13753.5c0,0-8.3,22.6-29.3,22.6c-5.1,0-10.9-1.3-17.5-4.6c0,0,0,0,0,0
			c-0.1,0,1.9,1.7,5.2,3.4c3.3,1.7,8,3.4,13.6,3.4c2.9,0,6.1-0.5,9.4-1.6C61.6,13773.1,67.7,13766.1,70.4,13753.5"/>
	</g>
</g>
</svg>
