<?xml version="1.0" encoding="utf-8"?>
<!-- Generator: Adobe Illustrator 24.1.1, SVG Export Plug-In . SVG Version: 6.00 Build 0)  -->
<svg version="1.1" id="Layer_1" xmlns="http://www.w3.org/2000/svg" xmlns:xlink="http://www.w3.org/1999/xlink" x="0px" y="0px"
	 viewBox="0 0 24 24" style="enable-background:new 0 0 24 24;" xml:space="preserve">
<style type="text/css">
	.st0{fill:#FFFFFF;}
</style>
<path class="st0" d="M4.5,11.3h15c0.3,0,0.5,0.2,0.5,0.5v0.5c0,0.3-0.2,0.5-0.5,0.5h-15c-0.3,0-0.5-0.2-0.5-0.5v-0.5
	C4,11.5,4.2,11.3,4.5,11.3z"/>
<path class="st0" d="M4.5,6h15C19.8,6,20,6.2,20,6.5V7c0,0.3-0.2,0.5-0.5,0.5h-15C4.2,7.5,4,7.3,4,7V6.5C4,6.2,4.2,6,4.5,6z"/>
<path class="st0" d="M4.5,16.5h15c0.3,0,0.5,0.2,0.5,0.5v0.5c0,0.3-0.2,0.5-0.5,0.5h-15C4.2,18,4,17.8,4,17.5V17
	C4,16.7,4.2,16.5,4.5,16.5z"/>
</svg>
