<?xml version="1.0" encoding="utf-8"?>
<!-- Generator: Adobe Illustrator 24.1.1, SVG Export Plug-In . SVG Version: 6.00 Build 0)  -->
<svg version="1.1"
	 id="svg2" xmlns:cc="http://creativecommons.org/ns#" xmlns:dc="http://purl.org/dc/elements/1.1/" xmlns:rdf="http://www.w3.org/1999/02/22-rdf-syntax-ns#" xmlns:svg="http://www.w3.org/2000/svg"
	 xmlns="http://www.w3.org/2000/svg" xmlns:xlink="http://www.w3.org/1999/xlink" x="0px" y="0px" viewBox="0 0 4316.9 4058.2"
	 style="enable-background:new 0 0 4316.9 4058.2;" xml:space="preserve">
<style type="text/css">
	.st0{fill-rule:evenodd;clip-rule:evenodd;}
	.st1{fill:#030104;}
</style>
<path class="st0" d="M5501.1-3583.9H3334c-192.6,0-348.7,156.1-348.7,348.7V-1068c0,192.6,156.1,348.7,348.7,348.7h2167.1
	c192.6,0,348.7-156.1,348.7-348.7v-2167.1C5849.9-3427.8,5693.7-3583.9,5501.1-3583.9z M5244.4-2863.9l-826.8,606.3l-826.8-606.4
	L5244.4-2863.9z M5357.9-1524.7c0,47.2-38.3,85.5-85.5,85.5l-1709.6,0c-47.2,0-85.5-38.3-85.5-85.5l0-1210.4l171,125.4l718.8,527.1
	c15.1,11,32.8,16.5,50.6,16.5c17.7,0,35.5-5.5,50.5-16.5l718.8-527.1l171-125.4V-1524.7z"/>
<g>
	<g>
		<path class="st1" d="M1668.4,2803l-281.8-108.8c37.7,151.3,174.3,263.4,337.4,263.4c192,0,347.9-155.7,347.9-347.9
			c0-191.8-155.9-347.7-347.9-347.7c-69.2,0-133.6,20.4-187.7,55.2l278.3,107.3c104.4,40.5,156.6,157.9,116.3,262.3
			C1890.4,2791.3,1773.1,2843.7,1668.4,2803z"/>
		<path class="st1" d="M2742,1990.3c237.8,0,431.2-193.4,431.2-431.2S2979.8,1128,2742,1128c-237.6,0-431.2,193.4-431.2,431.2
			C2310.9,1796.8,2504.4,1990.3,2742,1990.3z M2742,1255.5c167.7,0,303.9,136.2,303.9,303.7s-136.2,303.7-303.9,303.7
			c-167.5,0-303.7-136.2-303.7-303.7S2574.5,1255.5,2742,1255.5z"/>
		<path class="st1" d="M3215.2,597H1101.7c-207.6,0-375.5,168.2-375.5,375.5v1031.1l546.3,211.1
			c105.8-122.4,260.8-200.8,434.7-203.6l328.2-437.9c0-388.2,314.9-702.9,702.9-702.9c388.2,0,702.9,314.7,702.9,702.9
			c0,213.1-95,404-244.8,533l0,0l0,0c-123.3,105.8-283.1,169.9-458.1,169.9c-18.4,0-36.6-0.9-54.5-2.4l-381.4,287.5
			c0.9,12,1.3,24.3,1.3,36.6c0,324.1-262.8,587.3-586.8,587.3s-586.8-263-586.8-587.3c0-0.9,0-2.2,0-3.3l-403.8-155.9v647.1
			c0,207.4,168.2,375.5,375.5,375.5h2113.5c207.4,0,375.5-168.2,375.5-375.5V972.8C3590.7,765.4,3422.6,597,3215.2,597z"/>
	</g>
</g>
<g>
	<path d="M-2020.5-2650.1h-2523.8c-132.1,0-238.9,106.7-238.9,238.6V-24.4c0,131.5,106.8,238.5,238.9,238.5h2523.8
		c131.5,0,238.6-106.9,238.6-238.5v-2387.1C-1782-2543.4-1889.1-2650.1-2020.5-2650.1z M-2765.8-1799.7
		c-62.1-36.3-111.3-65-173.1-65c-60.5,0-112.3,15.1-138.7,40.6c-26.5,25.3-39.6,74.2-39.6,146.5v107h323.7l-70.1,297.5h-253.6v988.6
		h-406.6v-988.6h-189.8v-297.5h190v-113.6c0-119.6,14.3-191.2,42.6-250.2c28.2-58.8,82.8-124.4,158.8-161.5
		c75.9-37,188.2-55.6,304.3-55.6c119.1,0,212.1,39.7,326.2,71.7L-2765.8-1799.7z"/>
</g>
<path class="st0" d="M-4382.7,4332.7v2137c0,203.9,165.3,369.2,369.2,369.2h2137c203.9,0,369.2-165.3,369.2-369.2v-2137
	c0-203.9-165.3-369.2-369.2-369.2h-2137C-4217.5,3963.5-4382.7,4128.8-4382.7,4332.7z M-2153.6,4995.2c0.8,17.5,1.2,35.1,1.2,52.8
	c0,539.7-410.8,1162-1162,1162c-230.6,0-445.3-67.6-626-183.5c32,3.8,64.5,5.7,97.4,5.7c191.3,0,367.4-65.3,507.2-174.8
	c-178.7-3.3-329.5-121.4-381.5-283.6c24.9,4.8,50.5,7.3,76.8,7.3c37.2,0,73.3-5,107.6-14.3c-186.8-37.5-327.6-202.6-327.6-400.4
	c0-1.7,0-3.4,0-5.1c55.1,30.6,118,49,185,51.1c-109.6-73.2-181.7-198.2-181.7-339.9c0-74.9,20.1-145,55.3-205.3
	c201.4,247.1,502.3,409.7,841.8,426.7c-7-29.9-10.6-61.1-10.6-93.1c0-225.5,182.9-408.4,408.4-408.4c117.5,0,223.6,49.6,298.1,129
	c93-18.3,180.4-52.3,259.3-99.1c-30.5,95.4-95.2,175.4-179.6,225.9c82.6-9.9,161.3-31.8,234.6-64.3
	C-2004.5,4865.7-2073.8,4937.7-2153.6,4995.2z"/>
<path d="M-3389.9,8317.3l464,320l-464,320V8317.3z M-1781.9,7583v2108.5c0,211.7-171.7,383.4-383.4,383.4h-2108.5
	c-211.7,0-383.4-171.7-383.4-383.4V7583c0-211.7,171.7-383.4,383.4-383.4h2108.5C-1953.6,7199.6-1781.9,7371.3-1781.9,7583z
	 M-2403,8402.2c0-194.1-157.3-351.4-351.4-351.4h-930.4c-194.1,0-351.4,157.3-351.4,351.4v470.1c0,194.1,157.3,351.4,351.4,351.4
	h930.4c194.1,0,351.4-157.3,351.4-351.4V8402.2z"/>
</svg>
