<?xml version="1.0" encoding="utf-8"?>
<!-- Generator: Adobe Illustrator 24.1.1, SVG Export Plug-In . SVG Version: 6.00 Build 0)  -->
<svg version="1.1"
	 id="svg2" xmlns:cc="http://creativecommons.org/ns#" xmlns:dc="http://purl.org/dc/elements/1.1/" xmlns:rdf="http://www.w3.org/1999/02/22-rdf-syntax-ns#" xmlns:svg="http://www.w3.org/2000/svg"
	 xmlns="http://www.w3.org/2000/svg" xmlns:xlink="http://www.w3.org/1999/xlink" x="0px" y="0px" viewBox="0 0 4316.9 4058.2"
	 style="enable-background:new 0 0 4316.9 4058.2;" xml:space="preserve">
<style type="text/css">
	.st0{fill-rule:evenodd;clip-rule:evenodd;fill:#FFFFFF;}
	.st1{fill:#FFFFFF;}
</style>
<g>
	<g>
		<path class="st1" d="M1668.4,2803l-281.8-108.8c37.7,151.3,174.3,263.4,337.4,263.4c192,0,347.9-155.7,347.9-347.9
			c0-191.8-155.9-347.7-347.9-347.7c-69.2,0-133.6,20.4-187.7,55.2l278.3,107.3c104.4,40.5,156.6,157.9,116.3,262.3
			C1890.4,2791.3,1773.1,2843.7,1668.4,2803z"/>
		<path class="st1" d="M2742,1990.3c237.8,0,431.2-193.4,431.2-431.2S2979.8,1128,2742,1128c-237.6,0-431.2,193.4-431.2,431.2
			C2310.9,1796.8,2504.4,1990.3,2742,1990.3z M2742,1255.5c167.7,0,303.9,136.2,303.9,303.7s-136.2,303.7-303.9,303.7
			c-167.5,0-303.7-136.2-303.7-303.7S2574.5,1255.5,2742,1255.5z"/>
		<path class="st1" d="M3215.2,597H1101.7c-207.6,0-375.5,168.2-375.5,375.5v1031.1l546.3,211.1
			c105.8-122.4,260.8-200.8,434.7-203.6l328.2-437.9c0-388.2,314.9-702.9,702.9-702.9c388.2,0,702.9,314.7,702.9,702.9
			c0,213.1-95,404-244.8,533l0,0l0,0c-123.3,105.8-283.1,169.9-458.1,169.9c-18.4,0-36.6-0.9-54.5-2.4l-381.4,287.5
			c0.9,12,1.3,24.3,1.3,36.6c0,324.1-262.8,587.3-586.8,587.3s-586.8-263-586.8-587.3c0-0.9,0-2.2,0-3.3l-403.8-155.9v647.1
			c0,207.4,168.2,375.5,375.5,375.5h2113.5c207.4,0,375.5-168.2,375.5-375.5V972.8C3590.7,765.4,3422.6,597,3215.2,597z"/>
	</g>
</g>
</svg>
