<?xml version="1.0" encoding="utf-8"?>
<!-- Generator: Adobe Illustrator 24.1.1, SVG Export Plug-In . SVG Version: 6.00 Build 0)  -->
<svg version="1.1"
	 id="svg2" xmlns:cc="http://creativecommons.org/ns#" xmlns:dc="http://purl.org/dc/elements/1.1/" xmlns:rdf="http://www.w3.org/1999/02/22-rdf-syntax-ns#" xmlns:svg="http://www.w3.org/2000/svg"
	 xmlns="http://www.w3.org/2000/svg" xmlns:xlink="http://www.w3.org/1999/xlink" x="0px" y="0px" viewBox="0 0 4316.9 4058.2"
	 style="enable-background:new 0 0 4316.9 4058.2;" xml:space="preserve">
<style type="text/css">
	.st0{fill-rule:evenodd;clip-rule:evenodd;}
	.st1{fill:#030104;}
</style>
<path class="st0" d="M720.8,960.6v2137c0,203.9,165.3,369.2,369.2,369.2h2137c203.9,0,369.2-165.3,369.2-369.2v-2137
	c0-203.9-165.3-369.2-369.2-369.2H1090C886.1,591.5,720.8,756.7,720.8,960.6z M2950,1623.1c0.8,17.5,1.2,35.1,1.2,52.8
	c0,539.7-410.8,1162-1162,1162c-230.6,0-445.3-67.6-626-183.5c32,3.8,64.5,5.7,97.4,5.7c191.3,0,367.4-65.3,507.2-174.8
	c-178.7-3.3-329.5-121.4-381.5-283.6c24.9,4.8,50.5,7.3,76.8,7.3c37.2,0,73.3-5,107.6-14.3c-186.8-37.5-327.6-202.6-327.6-400.4
	c0-1.7,0-3.4,0-5.1c55.1,30.6,118,49,185,51.1c-109.6-73.2-181.7-198.2-181.7-339.9c0-74.9,20.1-145,55.3-205.3
	c201.4,247.1,502.3,409.7,841.8,426.7c-7-29.9-10.6-61.1-10.6-93.1c0-225.5,182.9-408.4,408.4-408.4c117.5,0,223.6,49.6,298.1,129
	c93-18.3,180.4-52.3,259.3-99.1c-30.5,95.4-95.2,175.4-179.6,225.9c82.6-9.9,161.3-31.8,234.6-64.3
	C3099,1493.6,3029.8,1565.6,2950,1623.1z"/>
</svg>
