<svg id="svg2" xmlns="http://www.w3.org/2000/svg" viewBox="0 0 8620.64 5418.55"><defs><style>.cls-1{fill:#fff;}</style></defs><path class="cls-1" d="M3163-2256.08a262.75,262.75,0,0,0-182.47-182.47c-163.41-43.78-821.1-43.78-821.1-43.78s-656-.88-821.11,43.78a262.75,262.75,0,0,0-182.47,182.47,2730.65,2730.65,0,0,0-45.62,507.29,2730.71,2730.71,0,0,0,45.62,505.37,262.75,262.75,0,0,0,182.47,182.47c163.24,43.87,821.11,43.87,821.11,43.87s655.94,0,821.1-43.87A262.75,262.75,0,0,0,3163-1243.42a2730.67,2730.67,0,0,0,43.7-505.37A2730.61,2730.61,0,0,0,3163-2256.08ZM1949.48-1435v-628.59l547.4,314.77Z" transform="translate(5413.9 2482.33)"/><path class="cls-1" d="M-3186.09,1338a929.89,929.89,0,0,1-262.73,72.08c94.3-56.83,166.85-146.39,201.16-253.25A945.16,945.16,0,0,1-3538.48,1267a455.71,455.71,0,0,0-334-145c-252.69,0-457.58,204.89-457.58,457.3a468.09,468.09,0,0,0,11.82,104.54c-380.39-17.95-717.53-200.61-943.16-476.74-39.71,67.15-61.94,145.18-61.94,230.19,0,159,80.91,298.82,203.49,380.94A456.1,456.1,0,0,1-5327,1760.93v5.67c0,221.82,157.46,406.8,367,448.93a464.49,464.49,0,0,1-120.54,15.91,461.41,461.41,0,0,1-85.19-8c58.69,181.64,227.39,314.07,428.19,317.79A917.72,917.72,0,0,1-5305.09,2737a969.3,969.3,0,0,1-108.81-6.24c203.58,129.65,443.44,205.45,702.83,205.45,842,0,1302-697.16,1302-1300.75,0-19.44,0-39.06-1.4-58.6a923.78,923.78,0,0,0,228.79-237Z" transform="translate(5413.9 2482.33)"/><path class="cls-1" d="M2288.72,2857.83V2275.19H2483l37-241H2288.72c-.36-214.2-30.43-305,241-286.61V1542.37c-389.75-70.36-535,74.51-501.57,491.8h-211.7v241h211.7v582.64c-992.35-149.49-882.91-1661.67,130.33-1657.43C3171.66,1196.27,3281.06,2708.5,2288.72,2857.83Z" transform="translate(5413.9 2482.33)"/></svg>