<?xml version="1.0" encoding="utf-8"?>
<!-- Generator: Adobe Illustrator 24.1.1, SVG Export Plug-In . SVG Version: 6.00 Build 0)  -->
<svg version="1.1"
	 id="svg2" xmlns:cc="http://creativecommons.org/ns#" xmlns:dc="http://purl.org/dc/elements/1.1/" xmlns:rdf="http://www.w3.org/1999/02/22-rdf-syntax-ns#" xmlns:svg="http://www.w3.org/2000/svg"
	 xmlns="http://www.w3.org/2000/svg" xmlns:xlink="http://www.w3.org/1999/xlink" x="0px" y="0px" viewBox="0 0 4316.9 4058.2"
	 style="enable-background:new 0 0 4316.9 4058.2;" xml:space="preserve">
<style type="text/css">
	.st0{fill:#FFFFFF;}
</style>
<path class="st0" d="M4068.6,841.7c-141.4,62.2-292.4,104.5-451.4,123.8c162-97.6,286.7-251.5,345.6-435.1
	c-152,88.7-320.4,153.2-499.7,189.2c-143.2-153.2-347.2-249.1-573.8-249.1c-434.2,0-786.2,352-786.2,785.7
	c0,62.3,7.2,122.2,20.3,179.6C1469.8,1405,890.5,1091.2,502.8,616.7c-68.2,115.4-106.4,249.4-106.4,395.5
	c0,273.3,139,513.4,349.6,654.5c-129-4.2-250.2-39.6-356-98.4v9.7c0,381.1,270.5,699,630.6,771.4c-66,17.7-135.7,27.3-207.1,27.3
	c-50.2,0-98.3-4.8-146.4-13.7c100.8,312.1,390.7,539.6,735.7,546c-268.5,210.8-608.7,336.4-975.1,336.4c-62.3,0-124.5-3.7-187-10.7
	c349.8,222.8,761.9,353,1207.6,353c1446.8,0,2237-1197.9,2237-2235c0-33.4,0-67.1-2.4-100.7c153.6-110.1,287.6-249.3,393.1-407.2
	C4076.1,844.9,4068.6,841.7,4068.6,841.7z"/>
</svg>
