<?xml version="1.0" encoding="utf-8"?>
<!-- Generator: Adobe Illustrator 24.1.1, SVG Export Plug-In . SVG Version: 6.00 Build 0)  -->
<svg version="1.1"
	 id="svg2" xmlns:cc="http://creativecommons.org/ns#" xmlns:dc="http://purl.org/dc/elements/1.1/" xmlns:rdf="http://www.w3.org/1999/02/22-rdf-syntax-ns#" xmlns:svg="http://www.w3.org/2000/svg"
	 xmlns="http://www.w3.org/2000/svg" xmlns:xlink="http://www.w3.org/1999/xlink" x="0px" y="0px" viewBox="0 0 4316.9 4058.2"
	 style="enable-background:new 0 0 4316.9 4058.2;" xml:space="preserve">
<style type="text/css">
	.st0{fill:#FFFFFF;}
</style>
<g>
	<path class="st0" d="M2008.7,2628.1l239.6-239.6h359.4l299.5-299.5v-838.7h-1258v1138.2h359.4V2628.1z M2428,1549.9h179.7v479.2
		H2428V1549.9z M2068.6,1549.9h179.7v479.2h-179.7V1549.9z"/>
	<path class="st0" d="M3237.5,591.4h-2158c-197.3,0-358.7,161.4-358.7,358.7v2158c0,197.3,161.4,358.7,358.7,358.7h2158
		c197.3,0,358.7-161.4,358.7-358.7v-2158C3596.1,752.8,3434.7,591.4,3237.5,591.4z M3087,2148.9l-479.2,479.2h-359.4l-179.7,239.6
		H1829v-239.6h-419.3v-1252l119.8-305.5H3087V2148.9z"/>
</g>
</svg>
