<?xml version="1.0" encoding="utf-8"?>
<!-- Generator: Adobe Illustrator 24.1.1, SVG Export Plug-In . SVG Version: 6.00 Build 0)  -->
<svg version="1.1"
	 id="svg2" xmlns:cc="http://creativecommons.org/ns#" xmlns:dc="http://purl.org/dc/elements/1.1/" xmlns:rdf="http://www.w3.org/1999/02/22-rdf-syntax-ns#" xmlns:svg="http://www.w3.org/2000/svg"
	 xmlns="http://www.w3.org/2000/svg" xmlns:xlink="http://www.w3.org/1999/xlink" x="0px" y="0px" viewBox="0 0 4316.9 4058.2"
	 style="enable-background:new 0 0 4316.9 4058.2;" xml:space="preserve">
<style type="text/css">
	.st0{fill-rule:evenodd;clip-rule:evenodd;fill:#FFFFFF;}
	.st1{fill:#FFFFFF;}
</style>
<path class="st1" d="M1988.1,1709.1l464,320l-464,320V1709.1z M3596.1,974.9v2108.5c0,211.7-171.7,383.4-383.4,383.4H1104.2
	c-211.7,0-383.4-171.7-383.4-383.4V974.9c0-211.7,171.7-383.4,383.4-383.4h2108.5C3424.5,591.5,3596.1,763.1,3596.1,974.9z
	 M2975,1794c0-194.1-157.3-351.4-351.4-351.4h-930.4c-194.1,0-351.4,157.3-351.4,351.4v470.1c0,194.1,157.3,351.4,351.4,351.4h930.4
	c194.1,0,351.4-157.3,351.4-351.4V1794z"/>
</svg>
