<?xml version="1.0" encoding="utf-8"?>
<!-- Generator: Adobe Illustrator 24.1.1, SVG Export Plug-In . SVG Version: 6.00 Build 0)  -->
<svg version="1.1"
	 id="svg2" xmlns:cc="http://creativecommons.org/ns#" xmlns:dc="http://purl.org/dc/elements/1.1/" xmlns:rdf="http://www.w3.org/1999/02/22-rdf-syntax-ns#" xmlns:svg="http://www.w3.org/2000/svg"
	 xmlns="http://www.w3.org/2000/svg" xmlns:xlink="http://www.w3.org/1999/xlink" x="0px" y="0px" viewBox="0 0 4316.9 4058.2"
	 style="enable-background:new 0 0 4316.9 4058.2;" xml:space="preserve">
<style type="text/css">
	.st0{fill:#FFFFFF;}
</style>
<path class="st0" d="M4067.6,1066.7c-47-168.3-178.5-299.8-346.8-346.8c-310.6-83.2-1560.6-83.2-1560.6-83.2S913.4,635,599.6,719.9
	c-168.3,47-299.8,178.5-346.8,346.8c-58.9,318-87.9,640.8-86.7,964.2c-1,322.2,28.1,643.7,86.7,960.5
	c47,168.3,178.5,299.8,346.8,346.8c310.3,83.4,1560.6,83.4,1560.6,83.4s1246.7,0,1560.6-83.4c168.3-47,299.8-178.5,346.8-346.8
	c57.4-316.9,85.2-638.5,83-960.5C4153.1,1707.6,4125.3,1384.8,4067.6,1066.7z M1761.3,2627.3V1432.6l1040.4,598.3L1761.3,2627.3z"/>
</svg>
